<?xml version="1.0" encoding="UTF-8" standalone="no"?><svg xmlns="http://www.w3.org/2000/svg" xmlns:xlink="http://www.w3.org/1999/xlink" contentScriptType="application/ecmascript" contentStyleType="text/css" height="330px" preserveAspectRatio="none" style="width:1596px;height:330px;" version="1.1" viewBox="0 0 1596 330" width="1596px" zoomAndPan="magnify"><defs><filter height="300%" id="fmgn6xn3jl8i4" width="300%" x="-1" y="-1"><feGaussianBlur result="blurOut" stdDeviation="2.0"/><feColorMatrix in="blurOut" result="blurOut2" type="matrix" values="0 0 0 0 0 0 0 0 0 0 0 0 0 0 0 0 0 0 .4 0"/><feOffset dx="4.0" dy="4.0" in="blurOut2" result="blurOut3"/><feBlend in="SourceGraphic" in2="blurOut3" mode="normal"/></filter></defs><g><!--MD5=[4555bb1b0911a5adf28ce6dbe60fed2e]
class Transaction--><rect codeLine="1" fill="#FEFECE" filter="url(#fmgn6xn3jl8i4)" height="86.4141" id="Transaction" style="stroke:#A80036;stroke-width:1.5;" width="224" x="557.5" y="26.5"/><ellipse cx="630.75" cy="42.5" fill="#ADD1B2" rx="11" ry="11" style="stroke:#A80036;stroke-width:1.0;"/><path d="M633.0938,38.1719 C632.1563,37.7344 631.5625,37.5938 630.6875,37.5938 C628.0625,37.5938 626.0625,39.6719 626.0625,42.3906 L626.0625,43.5156 C626.0625,46.0938 628.1719,47.9844 631.0625,47.9844 C632.2813,47.9844 633.4375,47.6875 634.1875,47.1406 C634.7656,46.7344 635.0938,46.2813 635.0938,45.8906 C635.0938,45.4375 634.7031,45.0469 634.2344,45.0469 C634.0156,45.0469 633.8125,45.125 633.625,45.3125 C633.1719,45.7969 633.1719,45.7969 632.9844,45.8906 C632.5625,46.1563 631.875,46.2813 631.1094,46.2813 C629.0625,46.2813 627.7656,45.1875 627.7656,43.4844 L627.7656,42.3906 C627.7656,40.6094 629.0156,39.2969 630.75,39.2969 C631.3281,39.2969 631.9375,39.4531 632.4063,39.7031 C632.8906,39.9844 633.0625,40.2031 633.1563,40.6094 C633.2188,41.0156 633.25,41.1406 633.3906,41.2656 C633.5313,41.4063 633.7656,41.5156 633.9844,41.5156 C634.25,41.5156 634.5156,41.375 634.6875,41.1563 C634.7969,41 634.8281,40.8125 634.8281,40.3906 L634.8281,38.9688 C634.8281,38.5313 634.8125,38.4063 634.7188,38.25 C634.5625,37.9844 634.2813,37.8438 633.9844,37.8438 C633.6875,37.8438 633.4844,37.9375 633.2656,38.25 L633.0938,38.1719 Z " fill="#000000"/><text fill="#000000" font-family="sans-serif" font-size="12" lengthAdjust="spacing" textLength="69" x="651.25" y="46.6543">Transaction</text><line style="stroke:#A80036;stroke-width:1.5;" x1="558.5" x2="780.5" y1="58.5" y2="58.5"/><ellipse cx="568.5" cy="69.5" fill="none" rx="3" ry="3" style="stroke:#038048;stroke-width:1.0;"/><text fill="#000000" font-family="sans-serif" font-size="11" lengthAdjust="spacing" textLength="173" x="577.5" y="72.7104">Amount : decimal «get» «set»</text><ellipse cx="568.5" cy="82.3047" fill="none" rx="3" ry="3" style="stroke:#038048;stroke-width:1.0;"/><text fill="#000000" font-family="sans-serif" font-size="11" lengthAdjust="spacing" textLength="120" x="577.5" y="85.5151">Id : Guid «get» «set»</text><ellipse cx="568.5" cy="95.1094" fill="none" rx="3" ry="3" style="stroke:#038048;stroke-width:1.0;"/><text fill="#000000" font-family="sans-serif" font-size="11" lengthAdjust="spacing" textLength="198" x="577.5" y="98.3198">DateTime : DateTime «get» «set»</text><line style="stroke:#A80036;stroke-width:1.5;" x1="558.5" x2="780.5" y1="104.9141" y2="104.9141"/><!--MD5=[6fc24dedabb8fd7d3bafe791cbe9d10c]
class SettlementUser--><rect codeLine="31" fill="#FEFECE" filter="url(#fmgn6xn3jl8i4)" height="73.6094" id="SettlementUser" style="stroke:#A80036;stroke-width:1.5;" width="217" x="808" y="217.5"/><ellipse cx="865.25" cy="233.5" fill="#ADD1B2" rx="11" ry="11" style="stroke:#A80036;stroke-width:1.0;"/><path d="M867.5938,229.1719 C866.6563,228.7344 866.0625,228.5938 865.1875,228.5938 C862.5625,228.5938 860.5625,230.6719 860.5625,233.3906 L860.5625,234.5156 C860.5625,237.0938 862.6719,238.9844 865.5625,238.9844 C866.7813,238.9844 867.9375,238.6875 868.6875,238.1406 C869.2656,237.7344 869.5938,237.2813 869.5938,236.8906 C869.5938,236.4375 869.2031,236.0469 868.7344,236.0469 C868.5156,236.0469 868.3125,236.125 868.125,236.3125 C867.6719,236.7969 867.6719,236.7969 867.4844,236.8906 C867.0625,237.1563 866.375,237.2813 865.6094,237.2813 C863.5625,237.2813 862.2656,236.1875 862.2656,234.4844 L862.2656,233.3906 C862.2656,231.6094 863.5156,230.2969 865.25,230.2969 C865.8281,230.2969 866.4375,230.4531 866.9063,230.7031 C867.3906,230.9844 867.5625,231.2031 867.6563,231.6094 C867.7188,232.0156 867.75,232.1406 867.8906,232.2656 C868.0313,232.4063 868.2656,232.5156 868.4844,232.5156 C868.75,232.5156 869.0156,232.375 869.1875,232.1563 C869.2969,232 869.3281,231.8125 869.3281,231.3906 L869.3281,229.9688 C869.3281,229.5313 869.3125,229.4063 869.2188,229.25 C869.0625,228.9844 868.7813,228.8438 868.4844,228.8438 C868.1875,228.8438 867.9844,228.9375 867.7656,229.25 L867.5938,229.1719 Z " fill="#000000"/><text fill="#000000" font-family="sans-serif" font-size="12" lengthAdjust="spacing" textLength="94" x="885.75" y="237.6543">SettlementUser</text><line style="stroke:#A80036;stroke-width:1.5;" x1="809" x2="1024" y1="249.5" y2="249.5"/><ellipse cx="819" cy="260.5" fill="none" rx="3" ry="3" style="stroke:#038048;stroke-width:1.0;"/><text fill="#000000" font-family="sans-serif" font-size="11" lengthAdjust="spacing" textLength="191" x="828" y="263.7104">DisplayName : string «get» «set»</text><ellipse cx="819" cy="273.3047" fill="none" rx="3" ry="3" style="stroke:#038048;stroke-width:1.0;"/><text fill="#000000" font-family="sans-serif" font-size="11" lengthAdjust="spacing" textLength="120" x="828" y="276.5151">Id : Guid «get» «set»</text><line style="stroke:#A80036;stroke-width:1.5;" x1="809" x2="1024" y1="283.1094" y2="283.1094"/><!--MD5=[dd18f9be9ea600248772480d8b0c25f7]
class SolutionTransaction--><rect codeLine="8" fill="#FEFECE" filter="url(#fmgn6xn3jl8i4)" height="60.8047" id="SolutionTransaction" style="stroke:#A80036;stroke-width:1.5;" width="199" x="817" y="39"/><ellipse cx="854.5" cy="55" fill="#ADD1B2" rx="11" ry="11" style="stroke:#A80036;stroke-width:1.0;"/><path d="M856.8438,50.6719 C855.9063,50.2344 855.3125,50.0938 854.4375,50.0938 C851.8125,50.0938 849.8125,52.1719 849.8125,54.8906 L849.8125,56.0156 C849.8125,58.5938 851.9219,60.4844 854.8125,60.4844 C856.0313,60.4844 857.1875,60.1875 857.9375,59.6406 C858.5156,59.2344 858.8438,58.7813 858.8438,58.3906 C858.8438,57.9375 858.4531,57.5469 857.9844,57.5469 C857.7656,57.5469 857.5625,57.625 857.375,57.8125 C856.9219,58.2969 856.9219,58.2969 856.7344,58.3906 C856.3125,58.6563 855.625,58.7813 854.8594,58.7813 C852.8125,58.7813 851.5156,57.6875 851.5156,55.9844 L851.5156,54.8906 C851.5156,53.1094 852.7656,51.7969 854.5,51.7969 C855.0781,51.7969 855.6875,51.9531 856.1563,52.2031 C856.6406,52.4844 856.8125,52.7031 856.9063,53.1094 C856.9688,53.5156 857,53.6406 857.1406,53.7656 C857.2813,53.9063 857.5156,54.0156 857.7344,54.0156 C858,54.0156 858.2656,53.875 858.4375,53.6563 C858.5469,53.5 858.5781,53.3125 858.5781,52.8906 L858.5781,51.4688 C858.5781,51.0313 858.5625,50.9063 858.4688,50.75 C858.3125,50.4844 858.0313,50.3438 857.7344,50.3438 C857.4375,50.3438 857.2344,50.4375 857.0156,50.75 L856.8438,50.6719 Z " fill="#000000"/><text fill="#000000" font-family="sans-serif" font-size="12" lengthAdjust="spacing" textLength="117" x="873.5" y="59.1543">SolutionTransaction</text><line style="stroke:#A80036;stroke-width:1.5;" x1="818" x2="1015" y1="71" y2="71"/><ellipse cx="828" cy="82" fill="none" rx="3" ry="3" style="stroke:#038048;stroke-width:1.0;"/><text fill="#000000" font-family="sans-serif" font-size="11" lengthAdjust="spacing" textLength="173" x="837" y="85.2104">Amount : decimal «get» «set»</text><line style="stroke:#A80036;stroke-width:1.5;" x1="818" x2="1015" y1="91.8047" y2="91.8047"/><!--MD5=[5f86d249054bb6b413251c720c23f402]
class NewSettlementUser--><rect codeLine="13" fill="#FEFECE" filter="url(#fmgn6xn3jl8i4)" height="60.8047" id="NewSettlementUser" style="stroke:#A80036;stroke-width:1.5;" width="217" x="46" y="39"/><ellipse cx="90.25" cy="55" fill="#ADD1B2" rx="11" ry="11" style="stroke:#A80036;stroke-width:1.0;"/><path d="M92.5938,50.6719 C91.6563,50.2344 91.0625,50.0938 90.1875,50.0938 C87.5625,50.0938 85.5625,52.1719 85.5625,54.8906 L85.5625,56.0156 C85.5625,58.5938 87.6719,60.4844 90.5625,60.4844 C91.7813,60.4844 92.9375,60.1875 93.6875,59.6406 C94.2656,59.2344 94.5938,58.7813 94.5938,58.3906 C94.5938,57.9375 94.2031,57.5469 93.7344,57.5469 C93.5156,57.5469 93.3125,57.625 93.125,57.8125 C92.6719,58.2969 92.6719,58.2969 92.4844,58.3906 C92.0625,58.6563 91.375,58.7813 90.6094,58.7813 C88.5625,58.7813 87.2656,57.6875 87.2656,55.9844 L87.2656,54.8906 C87.2656,53.1094 88.5156,51.7969 90.25,51.7969 C90.8281,51.7969 91.4375,51.9531 91.9063,52.2031 C92.3906,52.4844 92.5625,52.7031 92.6563,53.1094 C92.7188,53.5156 92.75,53.6406 92.8906,53.7656 C93.0313,53.9063 93.2656,54.0156 93.4844,54.0156 C93.75,54.0156 94.0156,53.875 94.1875,53.6563 C94.2969,53.5 94.3281,53.3125 94.3281,52.8906 L94.3281,51.4688 C94.3281,51.0313 94.3125,50.9063 94.2188,50.75 C94.0625,50.4844 93.7813,50.3438 93.4844,50.3438 C93.1875,50.3438 92.9844,50.4375 92.7656,50.75 L92.5938,50.6719 Z " fill="#000000"/><text fill="#000000" font-family="sans-serif" font-size="12" lengthAdjust="spacing" textLength="120" x="110.75" y="59.1543">NewSettlementUser</text><line style="stroke:#A80036;stroke-width:1.5;" x1="47" x2="262" y1="71" y2="71"/><ellipse cx="57" cy="82" fill="none" rx="3" ry="3" style="stroke:#038048;stroke-width:1.0;"/><text fill="#000000" font-family="sans-serif" font-size="11" lengthAdjust="spacing" textLength="191" x="66" y="85.2104">DisplayName : string «get» «set»</text><line style="stroke:#A80036;stroke-width:1.5;" x1="47" x2="262" y1="91.8047" y2="91.8047"/><!--MD5=[a2ad7e4cdba1172ef4ee8a887a0d466e]
class Expense--><rect codeLine="16" fill="#FEFECE" filter="url(#fmgn6xn3jl8i4)" height="124.8281" id="Expense" style="stroke:#A80036;stroke-width:1.5;" width="295" x="1051" y="7"/><ellipse cx="1168.25" cy="23" fill="#ADD1B2" rx="11" ry="11" style="stroke:#A80036;stroke-width:1.0;"/><path d="M1170.5938,18.6719 C1169.6563,18.2344 1169.0625,18.0938 1168.1875,18.0938 C1165.5625,18.0938 1163.5625,20.1719 1163.5625,22.8906 L1163.5625,24.0156 C1163.5625,26.5938 1165.6719,28.4844 1168.5625,28.4844 C1169.7813,28.4844 1170.9375,28.1875 1171.6875,27.6406 C1172.2656,27.2344 1172.5938,26.7813 1172.5938,26.3906 C1172.5938,25.9375 1172.2031,25.5469 1171.7344,25.5469 C1171.5156,25.5469 1171.3125,25.625 1171.125,25.8125 C1170.6719,26.2969 1170.6719,26.2969 1170.4844,26.3906 C1170.0625,26.6563 1169.375,26.7813 1168.6094,26.7813 C1166.5625,26.7813 1165.2656,25.6875 1165.2656,23.9844 L1165.2656,22.8906 C1165.2656,21.1094 1166.5156,19.7969 1168.25,19.7969 C1168.8281,19.7969 1169.4375,19.9531 1169.9063,20.2031 C1170.3906,20.4844 1170.5625,20.7031 1170.6563,21.1094 C1170.7188,21.5156 1170.75,21.6406 1170.8906,21.7656 C1171.0313,21.9063 1171.2656,22.0156 1171.4844,22.0156 C1171.75,22.0156 1172.0156,21.875 1172.1875,21.6563 C1172.2969,21.5 1172.3281,21.3125 1172.3281,20.8906 L1172.3281,19.4688 C1172.3281,19.0313 1172.3125,18.9063 1172.2188,18.75 C1172.0625,18.4844 1171.7813,18.3438 1171.4844,18.3438 C1171.1875,18.3438 1170.9844,18.4375 1170.7656,18.75 L1170.5938,18.6719 Z " fill="#000000"/><text fill="#000000" font-family="sans-serif" font-size="12" lengthAdjust="spacing" textLength="52" x="1188.75" y="27.1543">Expense</text><line style="stroke:#A80036;stroke-width:1.5;" x1="1052" x2="1345" y1="39" y2="39"/><ellipse cx="1062" cy="50" fill="none" rx="3" ry="3" style="stroke:#038048;stroke-width:1.0;"/><text fill="#000000" font-family="sans-serif" font-size="11" lengthAdjust="spacing" textLength="149" x="1071" y="53.2104">Name : string «get» «set»</text><ellipse cx="1062" cy="62.8047" fill="none" rx="3" ry="3" style="stroke:#038048;stroke-width:1.0;"/><text fill="#000000" font-family="sans-serif" font-size="11" lengthAdjust="spacing" textLength="179" x="1071" y="66.0151">Description : string «get» «set»</text><ellipse cx="1062" cy="75.6094" fill="none" rx="3" ry="3" style="stroke:#038048;stroke-width:1.0;"/><text fill="#000000" font-family="sans-serif" font-size="11" lengthAdjust="spacing" textLength="173" x="1071" y="78.8198">Amount : decimal «get» «set»</text><ellipse cx="1062" cy="88.4141" fill="none" rx="3" ry="3" style="stroke:#038048;stroke-width:1.0;"/><text fill="#000000" font-family="sans-serif" font-size="11" lengthAdjust="spacing" textLength="120" x="1071" y="91.6245">Id : Guid «get» «set»</text><ellipse cx="1062" cy="101.2188" fill="none" rx="3" ry="3" style="stroke:#038048;stroke-width:1.0;"/><text fill="#000000" font-family="sans-serif" font-size="11" lengthAdjust="spacing" textLength="198" x="1071" y="104.4292">DateTime : DateTime «get» «set»</text><ellipse cx="1062" cy="114.0234" fill="none" rx="3" ry="3" style="stroke:#038048;stroke-width:1.0;"/><text fill="#000000" font-family="sans-serif" font-size="11" lengthAdjust="spacing" textLength="269" x="1071" y="117.2339">Participants : IReadOnlyList&lt;Guid&gt; «get» «set»</text><line style="stroke:#A80036;stroke-width:1.5;" x1="1052" x2="1345" y1="123.8281" y2="123.8281"/><!--MD5=[a58a1905721ef93e7964a35742bf2fca]
class NewTransaction--><rect codeLine="25" fill="#FEFECE" filter="url(#fmgn6xn3jl8i4)" height="99.2188" id="NewTransaction" style="stroke:#A80036;stroke-width:1.5;" width="224" x="298.5" y="20"/><ellipse cx="358.75" cy="36" fill="#ADD1B2" rx="11" ry="11" style="stroke:#A80036;stroke-width:1.0;"/><path d="M361.0938,31.6719 C360.1563,31.2344 359.5625,31.0938 358.6875,31.0938 C356.0625,31.0938 354.0625,33.1719 354.0625,35.8906 L354.0625,37.0156 C354.0625,39.5938 356.1719,41.4844 359.0625,41.4844 C360.2813,41.4844 361.4375,41.1875 362.1875,40.6406 C362.7656,40.2344 363.0938,39.7813 363.0938,39.3906 C363.0938,38.9375 362.7031,38.5469 362.2344,38.5469 C362.0156,38.5469 361.8125,38.625 361.625,38.8125 C361.1719,39.2969 361.1719,39.2969 360.9844,39.3906 C360.5625,39.6563 359.875,39.7813 359.1094,39.7813 C357.0625,39.7813 355.7656,38.6875 355.7656,36.9844 L355.7656,35.8906 C355.7656,34.1094 357.0156,32.7969 358.75,32.7969 C359.3281,32.7969 359.9375,32.9531 360.4063,33.2031 C360.8906,33.4844 361.0625,33.7031 361.1563,34.1094 C361.2188,34.5156 361.25,34.6406 361.3906,34.7656 C361.5313,34.9063 361.7656,35.0156 361.9844,35.0156 C362.25,35.0156 362.5156,34.875 362.6875,34.6563 C362.7969,34.5 362.8281,34.3125 362.8281,33.8906 L362.8281,32.4688 C362.8281,32.0313 362.8125,31.9063 362.7188,31.75 C362.5625,31.4844 362.2813,31.3438 361.9844,31.3438 C361.6875,31.3438 361.4844,31.4375 361.2656,31.75 L361.0938,31.6719 Z " fill="#000000"/><text fill="#000000" font-family="sans-serif" font-size="12" lengthAdjust="spacing" textLength="95" x="379.25" y="40.1543">NewTransaction</text><line style="stroke:#A80036;stroke-width:1.5;" x1="299.5" x2="521.5" y1="52" y2="52"/><ellipse cx="309.5" cy="63" fill="none" rx="3" ry="3" style="stroke:#038048;stroke-width:1.0;"/><text fill="#000000" font-family="sans-serif" font-size="11" lengthAdjust="spacing" textLength="173" x="318.5" y="66.2104">Amount : decimal «get» «set»</text><ellipse cx="309.5" cy="75.8047" fill="none" rx="3" ry="3" style="stroke:#038048;stroke-width:1.0;"/><text fill="#000000" font-family="sans-serif" font-size="11" lengthAdjust="spacing" textLength="148" x="318.5" y="79.0151">FromId : Guid «get» «set»</text><ellipse cx="309.5" cy="88.6094" fill="none" rx="3" ry="3" style="stroke:#038048;stroke-width:1.0;"/><text fill="#000000" font-family="sans-serif" font-size="11" lengthAdjust="spacing" textLength="134" x="318.5" y="91.8198">ToId : Guid «get» «set»</text><ellipse cx="309.5" cy="101.4141" fill="none" rx="3" ry="3" style="stroke:#038048;stroke-width:1.0;"/><text fill="#000000" font-family="sans-serif" font-size="11" lengthAdjust="spacing" textLength="198" x="318.5" y="104.6245">DateTime : DateTime «get» «set»</text><line style="stroke:#A80036;stroke-width:1.5;" x1="299.5" x2="521.5" y1="111.2188" y2="111.2188"/><!--MD5=[4eb2e9b9726912749da79b6cbd0a02a5]
class NewExpense--><rect codeLine="35" fill="#FEFECE" filter="url(#fmgn6xn3jl8i4)" height="124.8281" id="NewExpense" style="stroke:#A80036;stroke-width:1.5;" width="295" x="7" y="192"/><ellipse cx="111.25" cy="208" fill="#ADD1B2" rx="11" ry="11" style="stroke:#A80036;stroke-width:1.0;"/><path d="M113.5938,203.6719 C112.6563,203.2344 112.0625,203.0938 111.1875,203.0938 C108.5625,203.0938 106.5625,205.1719 106.5625,207.8906 L106.5625,209.0156 C106.5625,211.5938 108.6719,213.4844 111.5625,213.4844 C112.7813,213.4844 113.9375,213.1875 114.6875,212.6406 C115.2656,212.2344 115.5938,211.7813 115.5938,211.3906 C115.5938,210.9375 115.2031,210.5469 114.7344,210.5469 C114.5156,210.5469 114.3125,210.625 114.125,210.8125 C113.6719,211.2969 113.6719,211.2969 113.4844,211.3906 C113.0625,211.6563 112.375,211.7813 111.6094,211.7813 C109.5625,211.7813 108.2656,210.6875 108.2656,208.9844 L108.2656,207.8906 C108.2656,206.1094 109.5156,204.7969 111.25,204.7969 C111.8281,204.7969 112.4375,204.9531 112.9063,205.2031 C113.3906,205.4844 113.5625,205.7031 113.6563,206.1094 C113.7188,206.5156 113.75,206.6406 113.8906,206.7656 C114.0313,206.9063 114.2656,207.0156 114.4844,207.0156 C114.75,207.0156 115.0156,206.875 115.1875,206.6563 C115.2969,206.5 115.3281,206.3125 115.3281,205.8906 L115.3281,204.4688 C115.3281,204.0313 115.3125,203.9063 115.2188,203.75 C115.0625,203.4844 114.7813,203.3438 114.4844,203.3438 C114.1875,203.3438 113.9844,203.4375 113.7656,203.75 L113.5938,203.6719 Z " fill="#000000"/><text fill="#000000" font-family="sans-serif" font-size="12" lengthAdjust="spacing" textLength="78" x="131.75" y="212.1543">NewExpense</text><line style="stroke:#A80036;stroke-width:1.5;" x1="8" x2="301" y1="224" y2="224"/><ellipse cx="18" cy="235" fill="none" rx="3" ry="3" style="stroke:#038048;stroke-width:1.0;"/><text fill="#000000" font-family="sans-serif" font-size="11" lengthAdjust="spacing" textLength="149" x="27" y="238.2104">Name : string «get» «set»</text><ellipse cx="18" cy="247.8047" fill="none" rx="3" ry="3" style="stroke:#038048;stroke-width:1.0;"/><text fill="#000000" font-family="sans-serif" font-size="11" lengthAdjust="spacing" textLength="198" x="27" y="251.0151">DateTime : DateTime «get» «set»</text><ellipse cx="18" cy="260.6094" fill="none" rx="3" ry="3" style="stroke:#038048;stroke-width:1.0;"/><text fill="#000000" font-family="sans-serif" font-size="11" lengthAdjust="spacing" textLength="179" x="27" y="263.8198">Description : string «get» «set»</text><ellipse cx="18" cy="273.4141" fill="none" rx="3" ry="3" style="stroke:#038048;stroke-width:1.0;"/><text fill="#000000" font-family="sans-serif" font-size="11" lengthAdjust="spacing" textLength="173" x="27" y="276.6245">Amount : decimal «get» «set»</text><ellipse cx="18" cy="286.2188" fill="none" rx="3" ry="3" style="stroke:#038048;stroke-width:1.0;"/><text fill="#000000" font-family="sans-serif" font-size="11" lengthAdjust="spacing" textLength="269" x="27" y="289.4292">Participants : IReadOnlyList&lt;Guid&gt; «get» «set»</text><ellipse cx="18" cy="299.0234" fill="none" rx="3" ry="3" style="stroke:#038048;stroke-width:1.0;"/><text fill="#000000" font-family="sans-serif" font-size="11" lengthAdjust="spacing" textLength="158" x="27" y="302.2339">WhoPaid : Guid «get» «set»</text><line style="stroke:#A80036;stroke-width:1.5;" x1="8" x2="301" y1="308.8281" y2="308.8281"/><!--MD5=[072765358c9489a47ab780632d09b1fd]
class UserBalance--><rect codeLine="43" fill="#FEFECE" filter="url(#fmgn6xn3jl8i4)" height="60.8047" id="UserBalance" style="stroke:#A80036;stroke-width:1.5;" width="201" x="1381" y="39"/><ellipse cx="1439.25" cy="55" fill="#ADD1B2" rx="11" ry="11" style="stroke:#A80036;stroke-width:1.0;"/><path d="M1441.5938,50.6719 C1440.6563,50.2344 1440.0625,50.0938 1439.1875,50.0938 C1436.5625,50.0938 1434.5625,52.1719 1434.5625,54.8906 L1434.5625,56.0156 C1434.5625,58.5938 1436.6719,60.4844 1439.5625,60.4844 C1440.7813,60.4844 1441.9375,60.1875 1442.6875,59.6406 C1443.2656,59.2344 1443.5938,58.7813 1443.5938,58.3906 C1443.5938,57.9375 1443.2031,57.5469 1442.7344,57.5469 C1442.5156,57.5469 1442.3125,57.625 1442.125,57.8125 C1441.6719,58.2969 1441.6719,58.2969 1441.4844,58.3906 C1441.0625,58.6563 1440.375,58.7813 1439.6094,58.7813 C1437.5625,58.7813 1436.2656,57.6875 1436.2656,55.9844 L1436.2656,54.8906 C1436.2656,53.1094 1437.5156,51.7969 1439.25,51.7969 C1439.8281,51.7969 1440.4375,51.9531 1440.9063,52.2031 C1441.3906,52.4844 1441.5625,52.7031 1441.6563,53.1094 C1441.7188,53.5156 1441.75,53.6406 1441.8906,53.7656 C1442.0313,53.9063 1442.2656,54.0156 1442.4844,54.0156 C1442.75,54.0156 1443.0156,53.875 1443.1875,53.6563 C1443.2969,53.5 1443.3281,53.3125 1443.3281,52.8906 L1443.3281,51.4688 C1443.3281,51.0313 1443.3125,50.9063 1443.2188,50.75 C1443.0625,50.4844 1442.7813,50.3438 1442.4844,50.3438 C1442.1875,50.3438 1441.9844,50.4375 1441.7656,50.75 L1441.5938,50.6719 Z " fill="#000000"/><text fill="#000000" font-family="sans-serif" font-size="12" lengthAdjust="spacing" textLength="76" x="1459.75" y="59.1543">UserBalance</text><line style="stroke:#A80036;stroke-width:1.5;" x1="1382" x2="1581" y1="71" y2="71"/><ellipse cx="1392" cy="82" fill="none" rx="3" ry="3" style="stroke:#038048;stroke-width:1.0;"/><text fill="#000000" font-family="sans-serif" font-size="11" lengthAdjust="spacing" textLength="175" x="1401" y="85.2104">Balance : decimal «get» «set»</text><line style="stroke:#A80036;stroke-width:1.5;" x1="1382" x2="1581" y1="91.8047" y2="91.8047"/><!--MD5=[8738a8042a776bc5d654d13ece13c933]
link Transaction to SettlementUser--><path codeLine="6" d="M715.539,112.714 C754.44,143.391 810.157,184.603 853.206,214.506 " fill="none" id="Transaction-to-SettlementUser" style="stroke:#A80036;stroke-width:1.0;"/><polygon fill="#A80036" points="857.332,217.3639,852.2115,208.9508,853.2219,214.5167,847.656,215.527,857.332,217.3639" style="stroke:#A80036;stroke-width:1.0;"/><text fill="#000000" font-family="sans-serif" font-size="13" lengthAdjust="spacing" textLength="33" x="810.8536" y="206.5267">From</text><!--MD5=[8738a8042a776bc5d654d13ece13c933]
link Transaction to SettlementUser--><path codeLine="7" d="M738.059,112.714 C781.938,143.267 837.196,184.271 874.704,214.144 " fill="none" id="Transaction-to-SettlementUser-1" style="stroke:#A80036;stroke-width:1.0;"/><polygon fill="#A80036" points="878.732,217.3639,874.2006,208.6194,874.8268,214.2415,869.2047,214.8677,878.732,217.3639" style="stroke:#A80036;stroke-width:1.0;"/><text fill="#000000" font-family="sans-serif" font-size="13" lengthAdjust="spacing" textLength="16" x="854.5796" y="206.5267">To</text><!--MD5=[d9a2e065c922c83fcb59077a11d95017]
link SolutionTransaction to SettlementUser--><path codeLine="11" d="M906.79,100.309 C903.171,130.689 902.783,178.05 905.626,212.069 " fill="none" id="SolutionTransaction-to-SettlementUser" style="stroke:#A80036;stroke-width:1.0;"/><polygon fill="#A80036" points="906.11,217.41,909.2812,208.0856,905.6586,212.4304,901.3138,208.8079,906.11,217.41" style="stroke:#A80036;stroke-width:1.0;"/><text fill="#000000" font-family="sans-serif" font-size="13" lengthAdjust="spacing" textLength="33" x="907.2365" y="206.3039">From</text><!--MD5=[d9a2e065c922c83fcb59077a11d95017]
link SolutionTransaction to SettlementUser--><path codeLine="12" d="M926.781,100.309 C930.613,130.689 931.024,178.05 928.013,212.069 " fill="none" id="SolutionTransaction-to-SettlementUser-1" style="stroke:#A80036;stroke-width:1.0;"/><polygon fill="#A80036" points="927.501,217.41,932.3416,208.8328,927.9781,212.4328,924.3781,208.0694,927.501,217.41" style="stroke:#A80036;stroke-width:1.0;"/><text fill="#000000" font-family="sans-serif" font-size="13" lengthAdjust="spacing" textLength="16" x="931.0043" y="206.3039">To</text><!--MD5=[6d116f384e966889ffa2b404333aa1d6]
link Expense to SettlementUser--><path codeLine="24" d="M1103.42,132.2 C1061.47,159.421 1013.44,190.592 976.569,214.519 " fill="none" id="Expense-to-SettlementUser" style="stroke:#A80036;stroke-width:1.0;"/><polygon fill="#A80036" points="972.129,217.4001,981.8562,215.8569,976.3234,214.6786,977.5018,209.1458,972.129,217.4001" style="stroke:#A80036;stroke-width:1.0;"/><text fill="#000000" font-family="sans-serif" font-size="13" lengthAdjust="spacing" textLength="56" x="987.0254" y="206.5691">WhoPaid</text><!--MD5=[935309177d96e1a362d1032a8f58065d]
link UserBalance to SettlementUser--><path codeLine="46" d="M1430.64,100.067 C1410.23,111.115 1386.2,123.12 1363.5,132 C1253.14,175.178 1121.71,208.906 1030.05,229.7567 " fill="none" id="UserBalance-to-SettlementUser" style="stroke:#A80036;stroke-width:1.0;"/><polygon fill="#A80036" points="1025.17,230.8635,1034.8296,232.785,1030.0474,229.7632,1033.0692,224.9811,1025.17,230.8635" style="stroke:#A80036;stroke-width:1.0;"/><text fill="#000000" font-family="sans-serif" font-size="13" lengthAdjust="spacing" textLength="29" x="1033.0606" y="241.9134">User</text><!--MD5=[e4a6d323fe61f5975aa2f39037ebb37e]
link NewSettlementUser to NewTransaction--><!--MD5=[93921e54ca7030c76efd32cae91de5e3]
link NewSettlementUser to NewExpense--><!--MD5=[893f229799cd91a36f9fd17cc4968fef]
@startuml
class Transaction {
    + Amount : decimal <<get>> <<set>>
    + Id : Guid <<get>> <<set>>
    + DateTime : DateTime <<get>> <<set>>
}
Transaction - -> "From" SettlementUser
Transaction - -> "To" SettlementUser
class SolutionTransaction {
    + Amount : decimal <<get>> <<set>>
}
SolutionTransaction - -> "From" SettlementUser
SolutionTransaction - -> "To" SettlementUser
class NewSettlementUser {
    + DisplayName : string <<get>> <<set>>
}
class Expense {
    + Name : string <<get>> <<set>>
    + Description : string <<get>> <<set>>
    + Amount : decimal <<get>> <<set>>
    + Id : Guid <<get>> <<set>>
    + DateTime : DateTime <<get>> <<set>>
    + Participants : IReadOnlyList<Guid> <<get>> <<set>>
}
Expense - -> "WhoPaid" SettlementUser
class NewTransaction {
    + Amount : decimal <<get>> <<set>>
    + FromId : Guid <<get>> <<set>>
    + ToId : Guid <<get>> <<set>>
    + DateTime : DateTime <<get>> <<set>>
}
class SettlementUser {
    + DisplayName : string <<get>> <<set>>
    + Id : Guid <<get>> <<set>>
}
class NewExpense {
    + Name : string <<get>> <<set>>
    + DateTime : DateTime <<get>> <<set>>
    + Description : string <<get>> <<set>>
    + Amount : decimal <<get>> <<set>>
    + Participants : IReadOnlyList<Guid> <<get>> <<set>>
    + WhoPaid : Guid <<get>> <<set>>
}
class UserBalance {
    + Balance : decimal <<get>> <<set>>
}
UserBalance - -> "User" SettlementUser
@enduml

PlantUML version 1.2021.01beta3(Unknown compile time)
(GPL source distribution)
Java Runtime: Java(TM) SE Runtime Environment
JVM: Java HotSpot(TM) 64-Bit Server VM
Default Encoding: UTF-8
Language: en
Country: US
--></g></svg>