<?xml version="1.0" encoding="UTF-8" standalone="no"?><svg xmlns="http://www.w3.org/2000/svg" xmlns:xlink="http://www.w3.org/1999/xlink" contentScriptType="application/ecmascript" contentStyleType="text/css" height="317px" preserveAspectRatio="none" style="width:2097px;height:317px;" version="1.1" viewBox="0 0 2097 317" width="2097px" zoomAndPan="magnify"><defs><filter height="300%" id="f1l9vd9ljmomxy" width="300%" x="-1" y="-1"><feGaussianBlur result="blurOut" stdDeviation="2.0"/><feColorMatrix in="blurOut" result="blurOut2" type="matrix" values="0 0 0 0 0 0 0 0 0 0 0 0 0 0 0 0 0 0 .4 0"/><feOffset dx="4.0" dy="4.0" in="blurOut2" result="blurOut3"/><feBlend in="SourceGraphic" in2="blurOut3" mode="normal"/></filter></defs><g><!--MD5=[a146e4530673f60f32289f8319783997]
class ITransactionsRepository--><rect codeLine="1" fill="#FEFECE" filter="url(#f1l9vd9ljmomxy)" height="112.0234" id="ITransactionsRepository" style="stroke:#A80036;stroke-width:1.5;" width="538" x="82.5" y="7"/><ellipse cx="275.75" cy="23" fill="#B4A7E5" rx="11" ry="11" style="stroke:#A80036;stroke-width:1.0;"/><path d="M276.7031,19.7813 L278.4219,19.7813 C278.8125,19.7813 279,19.75 279.125,19.6719 C279.3906,19.5156 279.5313,19.2344 279.5313,18.9375 C279.5313,18.6719 279.4219,18.4063 279.1875,18.2344 C279.0156,18.125 278.875,18.0938 278.4219,18.0938 L273.2813,18.0938 C272.8438,18.0938 272.7188,18.1094 272.5625,18.2031 C272.3125,18.3594 272.1563,18.6563 272.1563,18.9375 C272.1563,19.2188 272.2969,19.4688 272.5156,19.6406 C272.6719,19.75 272.8594,19.7813 273.2813,19.7813 L275,19.7813 L275,26.2969 L273.2813,26.2969 C272.8438,26.2969 272.7188,26.3125 272.5625,26.4219 C272.3125,26.5781 272.1563,26.8594 272.1563,27.1563 C272.1563,27.4063 272.2969,27.6719 272.5156,27.8281 C272.6719,27.9531 272.875,28 273.2813,28 L278.4219,28 C279.1719,28 279.5313,27.7188 279.5313,27.1563 C279.5313,26.875 279.4219,26.625 279.1875,26.4531 C279.0156,26.3281 278.875,26.2969 278.4219,26.2969 L276.7031,26.2969 L276.7031,19.7813 Z " fill="#000000"/><text fill="#000000" font-family="sans-serif" font-size="12" font-style="italic" lengthAdjust="spacing" textLength="143" x="296.25" y="27.1543">ITransactionsRepository</text><line style="stroke:#A80036;stroke-width:1.5;" x1="83.5" x2="619.5" y1="39" y2="39"/><line style="stroke:#A80036;stroke-width:1.5;" x1="83.5" x2="619.5" y1="47" y2="47"/><text fill="#000000" font-family="sans-serif" font-size="11" lengthAdjust="spacing" textLength="373" x="88.5" y="61.2104">GetTransactions(settlementId:string) : IEnumerable&lt;Transaction&gt;</text><text fill="#000000" font-family="sans-serif" font-size="11" lengthAdjust="spacing" textLength="385" x="88.5" y="74.0151">GetTransaction(settlementId:string, transactionId:Guid) : Transaction</text><text fill="#000000" font-family="sans-serif" font-size="11" lengthAdjust="spacing" textLength="418" x="88.5" y="86.8198">CreateTransaction(settlementId:string, transaction:NewTransaction) : Guid</text><text fill="#000000" font-family="sans-serif" font-size="11" lengthAdjust="spacing" textLength="363" x="88.5" y="99.6245">DeleteTransaction(settlementId:string, transactionId:Guid) : void</text><text fill="#000000" font-family="sans-serif" font-size="11" lengthAdjust="spacing" textLength="526" x="88.5" y="112.4292">UpdateTransaction(settlementId:string, transactionId:Guid, transaction:NewTransaction) : void</text><!--MD5=[f84409df4fff93db798ccf5107ff4b34]
class TransactionsRepository--><rect codeLine="8" fill="#FEFECE" filter="url(#f1l9vd9ljmomxy)" height="124.8281" id="TransactionsRepository" style="stroke:#A80036;stroke-width:1.5;" width="689" x="7" y="179"/><ellipse cx="276.75" cy="195" fill="#ADD1B2" rx="11" ry="11" style="stroke:#A80036;stroke-width:1.0;"/><path d="M279.0938,190.6719 C278.1563,190.2344 277.5625,190.0938 276.6875,190.0938 C274.0625,190.0938 272.0625,192.1719 272.0625,194.8906 L272.0625,196.0156 C272.0625,198.5938 274.1719,200.4844 277.0625,200.4844 C278.2813,200.4844 279.4375,200.1875 280.1875,199.6406 C280.7656,199.2344 281.0938,198.7813 281.0938,198.3906 C281.0938,197.9375 280.7031,197.5469 280.2344,197.5469 C280.0156,197.5469 279.8125,197.625 279.625,197.8125 C279.1719,198.2969 279.1719,198.2969 278.9844,198.3906 C278.5625,198.6563 277.875,198.7813 277.1094,198.7813 C275.0625,198.7813 273.7656,197.6875 273.7656,195.9844 L273.7656,194.8906 C273.7656,193.1094 275.0156,191.7969 276.75,191.7969 C277.3281,191.7969 277.9375,191.9531 278.4063,192.2031 C278.8906,192.4844 279.0625,192.7031 279.1563,193.1094 C279.2188,193.5156 279.25,193.6406 279.3906,193.7656 C279.5313,193.9063 279.7656,194.0156 279.9844,194.0156 C280.25,194.0156 280.5156,193.875 280.6875,193.6563 C280.7969,193.5 280.8281,193.3125 280.8281,192.8906 L280.8281,191.4688 C280.8281,191.0313 280.8125,190.9063 280.7188,190.75 C280.5625,190.4844 280.2813,190.3438 279.9844,190.3438 C279.6875,190.3438 279.4844,190.4375 279.2656,190.75 L279.0938,190.6719 Z " fill="#000000"/><text fill="#000000" font-family="sans-serif" font-size="12" lengthAdjust="spacing" textLength="141" x="297.25" y="199.1543">TransactionsRepository</text><line style="stroke:#A80036;stroke-width:1.5;" x1="8" x2="695" y1="211" y2="211"/><line style="stroke:#A80036;stroke-width:1.5;" x1="8" x2="695" y1="219" y2="219"/><ellipse cx="18" cy="230" fill="#84BE84" rx="3" ry="3" style="stroke:#038048;stroke-width:1.0;"/><text fill="#000000" font-family="sans-serif" font-size="11" lengthAdjust="spacing" textLength="663" x="27" y="233.2104">TransactionsRepository(context:ExpensesSplitterContext, mapper:IMapper, logger:ILogger&lt;TransactionsRepository&gt;)</text><ellipse cx="18" cy="242.8047" fill="#84BE84" rx="3" ry="3" style="stroke:#038048;stroke-width:1.0;"/><text fill="#000000" font-family="sans-serif" font-size="11" lengthAdjust="spacing" textLength="373" x="27" y="246.0151">GetTransactions(settlementId:string) : IEnumerable&lt;Transaction&gt;</text><ellipse cx="18" cy="255.6094" fill="#84BE84" rx="3" ry="3" style="stroke:#038048;stroke-width:1.0;"/><text fill="#000000" font-family="sans-serif" font-size="11" lengthAdjust="spacing" textLength="385" x="27" y="258.8198">GetTransaction(settlementId:string, transactionId:Guid) : Transaction</text><ellipse cx="18" cy="268.4141" fill="#84BE84" rx="3" ry="3" style="stroke:#038048;stroke-width:1.0;"/><text fill="#000000" font-family="sans-serif" font-size="11" lengthAdjust="spacing" textLength="418" x="27" y="271.6245">CreateTransaction(settlementId:string, transaction:NewTransaction) : Guid</text><ellipse cx="18" cy="281.2188" fill="#84BE84" rx="3" ry="3" style="stroke:#038048;stroke-width:1.0;"/><text fill="#000000" font-family="sans-serif" font-size="11" lengthAdjust="spacing" textLength="363" x="27" y="284.4292">DeleteTransaction(settlementId:string, transactionId:Guid) : void</text><ellipse cx="18" cy="294.0234" fill="#84BE84" rx="3" ry="3" style="stroke:#038048;stroke-width:1.0;"/><text fill="#000000" font-family="sans-serif" font-size="11" lengthAdjust="spacing" textLength="526" x="27" y="297.2339">UpdateTransaction(settlementId:string, transactionId:Guid, transaction:NewTransaction) : void</text><!--MD5=[4f363d7c2c3560371badd93cafa4ad62]
class IExpensesRepository--><rect codeLine="17" fill="#FEFECE" filter="url(#f1l9vd9ljmomxy)" height="112.0234" id="IExpensesRepository" style="stroke:#A80036;stroke-width:1.5;" width="486" x="817.5" y="7"/><ellipse cx="994.25" cy="23" fill="#B4A7E5" rx="11" ry="11" style="stroke:#A80036;stroke-width:1.0;"/><path d="M995.2031,19.7813 L996.9219,19.7813 C997.3125,19.7813 997.5,19.75 997.625,19.6719 C997.8906,19.5156 998.0313,19.2344 998.0313,18.9375 C998.0313,18.6719 997.9219,18.4063 997.6875,18.2344 C997.5156,18.125 997.375,18.0938 996.9219,18.0938 L991.7813,18.0938 C991.3438,18.0938 991.2188,18.1094 991.0625,18.2031 C990.8125,18.3594 990.6563,18.6563 990.6563,18.9375 C990.6563,19.2188 990.7969,19.4688 991.0156,19.6406 C991.1719,19.75 991.3594,19.7813 991.7813,19.7813 L993.5,19.7813 L993.5,26.2969 L991.7813,26.2969 C991.3438,26.2969 991.2188,26.3125 991.0625,26.4219 C990.8125,26.5781 990.6563,26.8594 990.6563,27.1563 C990.6563,27.4063 990.7969,27.6719 991.0156,27.8281 C991.1719,27.9531 991.375,28 991.7813,28 L996.9219,28 C997.6719,28 998.0313,27.7188 998.0313,27.1563 C998.0313,26.875 997.9219,26.625 997.6875,26.4531 C997.5156,26.3281 997.375,26.2969 996.9219,26.2969 L995.2031,26.2969 L995.2031,19.7813 Z " fill="#000000"/><text fill="#000000" font-family="sans-serif" font-size="12" font-style="italic" lengthAdjust="spacing" textLength="124" x="1014.75" y="27.1543">IExpensesRepository</text><line style="stroke:#A80036;stroke-width:1.5;" x1="818.5" x2="1302.5" y1="39" y2="39"/><line style="stroke:#A80036;stroke-width:1.5;" x1="818.5" x2="1302.5" y1="47" y2="47"/><text fill="#000000" font-family="sans-serif" font-size="11" lengthAdjust="spacing" textLength="343" x="823.5" y="61.2104">GetExpenses(settlementId:string) : IEnumerable&lt;Expense&gt;</text><text fill="#000000" font-family="sans-serif" font-size="11" lengthAdjust="spacing" textLength="344" x="823.5" y="74.0151">GetExpense(settlementId:string, expenseId:Guid) : Expense</text><text fill="#000000" font-family="sans-serif" font-size="11" lengthAdjust="spacing" textLength="377" x="823.5" y="86.8198">CreateExpense(settlementId:string, expense:NewExpense) : Guid</text><text fill="#000000" font-family="sans-serif" font-size="11" lengthAdjust="spacing" textLength="337" x="823.5" y="99.6245">DeleteExpense(settlementId:string, expenseId:Guid) : void</text><text fill="#000000" font-family="sans-serif" font-size="11" lengthAdjust="spacing" textLength="474" x="823.5" y="112.4292">UpdateExpense(settlementId:string, expenseId:Guid, expense:NewExpense) : void</text><!--MD5=[cc47959cd71cef5fa7cf9ba90929801b]
class ExpensesRepository--><rect codeLine="24" fill="#FEFECE" filter="url(#f1l9vd9ljmomxy)" height="124.8281" id="ExpensesRepository" style="stroke:#A80036;stroke-width:1.5;" width="659" x="731" y="179"/><ellipse cx="994.25" cy="195" fill="#ADD1B2" rx="11" ry="11" style="stroke:#A80036;stroke-width:1.0;"/><path d="M996.5938,190.6719 C995.6563,190.2344 995.0625,190.0938 994.1875,190.0938 C991.5625,190.0938 989.5625,192.1719 989.5625,194.8906 L989.5625,196.0156 C989.5625,198.5938 991.6719,200.4844 994.5625,200.4844 C995.7813,200.4844 996.9375,200.1875 997.6875,199.6406 C998.2656,199.2344 998.5938,198.7813 998.5938,198.3906 C998.5938,197.9375 998.2031,197.5469 997.7344,197.5469 C997.5156,197.5469 997.3125,197.625 997.125,197.8125 C996.6719,198.2969 996.6719,198.2969 996.4844,198.3906 C996.0625,198.6563 995.375,198.7813 994.6094,198.7813 C992.5625,198.7813 991.2656,197.6875 991.2656,195.9844 L991.2656,194.8906 C991.2656,193.1094 992.5156,191.7969 994.25,191.7969 C994.8281,191.7969 995.4375,191.9531 995.9063,192.2031 C996.3906,192.4844 996.5625,192.7031 996.6563,193.1094 C996.7188,193.5156 996.75,193.6406 996.8906,193.7656 C997.0313,193.9063 997.2656,194.0156 997.4844,194.0156 C997.75,194.0156 998.0156,193.875 998.1875,193.6563 C998.2969,193.5 998.3281,193.3125 998.3281,192.8906 L998.3281,191.4688 C998.3281,191.0313 998.3125,190.9063 998.2188,190.75 C998.0625,190.4844 997.7813,190.3438 997.4844,190.3438 C997.1875,190.3438 996.9844,190.4375 996.7656,190.75 L996.5938,190.6719 Z " fill="#000000"/><text fill="#000000" font-family="sans-serif" font-size="12" lengthAdjust="spacing" textLength="124" x="1014.75" y="199.1543">ExpensesRepository</text><line style="stroke:#A80036;stroke-width:1.5;" x1="732" x2="1389" y1="211" y2="211"/><line style="stroke:#A80036;stroke-width:1.5;" x1="732" x2="1389" y1="219" y2="219"/><ellipse cx="742" cy="230" fill="#84BE84" rx="3" ry="3" style="stroke:#038048;stroke-width:1.0;"/><text fill="#000000" font-family="sans-serif" font-size="11" lengthAdjust="spacing" textLength="633" x="751" y="233.2104">ExpensesRepository(context:ExpensesSplitterContext, mapper:IMapper, logger:ILogger&lt;ExpensesRepository&gt;)</text><ellipse cx="742" cy="242.8047" fill="#84BE84" rx="3" ry="3" style="stroke:#038048;stroke-width:1.0;"/><text fill="#000000" font-family="sans-serif" font-size="11" lengthAdjust="spacing" textLength="343" x="751" y="246.0151">GetExpenses(settlementId:string) : IEnumerable&lt;Expense&gt;</text><ellipse cx="742" cy="255.6094" fill="#84BE84" rx="3" ry="3" style="stroke:#038048;stroke-width:1.0;"/><text fill="#000000" font-family="sans-serif" font-size="11" lengthAdjust="spacing" textLength="344" x="751" y="258.8198">GetExpense(settlementId:string, expenseId:Guid) : Expense</text><ellipse cx="742" cy="268.4141" fill="#84BE84" rx="3" ry="3" style="stroke:#038048;stroke-width:1.0;"/><text fill="#000000" font-family="sans-serif" font-size="11" lengthAdjust="spacing" textLength="377" x="751" y="271.6245">CreateExpense(settlementId:string, expense:NewExpense) : Guid</text><ellipse cx="742" cy="281.2188" fill="#84BE84" rx="3" ry="3" style="stroke:#038048;stroke-width:1.0;"/><text fill="#000000" font-family="sans-serif" font-size="11" lengthAdjust="spacing" textLength="337" x="751" y="284.4292">DeleteExpense(settlementId:string, expenseId:Guid) : void</text><ellipse cx="742" cy="294.0234" fill="#84BE84" rx="3" ry="3" style="stroke:#038048;stroke-width:1.0;"/><text fill="#000000" font-family="sans-serif" font-size="11" lengthAdjust="spacing" textLength="474" x="751" y="297.2339">UpdateExpense(settlementId:string, expenseId:Guid, expense:NewExpense) : void</text><!--MD5=[933beda076d0a5f9644a2693f5b934e3]
class ISettlementUsersRepository--><rect codeLine="33" fill="#FEFECE" filter="url(#f1l9vd9ljmomxy)" height="112.0234" id="ISettlementUsersRepository" style="stroke:#A80036;stroke-width:1.5;" width="644" x="1432.5" y="7"/><ellipse cx="1666.75" cy="23" fill="#B4A7E5" rx="11" ry="11" style="stroke:#A80036;stroke-width:1.0;"/><path d="M1667.7031,19.7813 L1669.4219,19.7813 C1669.8125,19.7813 1670,19.75 1670.125,19.6719 C1670.3906,19.5156 1670.5313,19.2344 1670.5313,18.9375 C1670.5313,18.6719 1670.4219,18.4063 1670.1875,18.2344 C1670.0156,18.125 1669.875,18.0938 1669.4219,18.0938 L1664.2813,18.0938 C1663.8438,18.0938 1663.7188,18.1094 1663.5625,18.2031 C1663.3125,18.3594 1663.1563,18.6563 1663.1563,18.9375 C1663.1563,19.2188 1663.2969,19.4688 1663.5156,19.6406 C1663.6719,19.75 1663.8594,19.7813 1664.2813,19.7813 L1666,19.7813 L1666,26.2969 L1664.2813,26.2969 C1663.8438,26.2969 1663.7188,26.3125 1663.5625,26.4219 C1663.3125,26.5781 1663.1563,26.8594 1663.1563,27.1563 C1663.1563,27.4063 1663.2969,27.6719 1663.5156,27.8281 C1663.6719,27.9531 1663.875,28 1664.2813,28 L1669.4219,28 C1670.1719,28 1670.5313,27.7188 1670.5313,27.1563 C1670.5313,26.875 1670.4219,26.625 1670.1875,26.4531 C1670.0156,26.3281 1669.875,26.2969 1669.4219,26.2969 L1667.7031,26.2969 L1667.7031,19.7813 Z " fill="#000000"/><text fill="#000000" font-family="sans-serif" font-size="12" font-style="italic" lengthAdjust="spacing" textLength="167" x="1687.25" y="27.1543">ISettlementUsersRepository</text><line style="stroke:#A80036;stroke-width:1.5;" x1="1433.5" x2="2075.5" y1="39" y2="39"/><line style="stroke:#A80036;stroke-width:1.5;" x1="1433.5" x2="2075.5" y1="47" y2="47"/><text fill="#000000" font-family="sans-serif" font-size="11" lengthAdjust="spacing" textLength="425" x="1438.5" y="61.2104">GetSettlementUsers(settlementId:string) : IEnumerable&lt;SettlementUser&gt;</text><text fill="#000000" font-family="sans-serif" font-size="11" lengthAdjust="spacing" textLength="464" x="1438.5" y="74.0151">GetSettlementUser(settlementId:string, settlementUserId:Guid) : SettlementUser</text><text fill="#000000" font-family="sans-serif" font-size="11" lengthAdjust="spacing" textLength="497" x="1438.5" y="86.8198">CreateSettlementUser(settlementId:string, settlementUser:NewSettlementUser) : Guid</text><text fill="#000000" font-family="sans-serif" font-size="11" lengthAdjust="spacing" textLength="416" x="1438.5" y="99.6245">DeleteSettlementUser(settlementId:string, settlementUserId:Guid) : void</text><text fill="#000000" font-family="sans-serif" font-size="11" lengthAdjust="spacing" textLength="632" x="1438.5" y="112.4292">UpdateSettlementUser(settlementId:string, settlementUserId:Guid, settlementUser:NewSettlementUser) : void</text><!--MD5=[df4c75c3100bda94473876b6652ce784]
class SettlementUsersRepository--><rect codeLine="40" fill="#FEFECE" filter="url(#f1l9vd9ljmomxy)" height="124.8281" id="SettlementUsersRepository" style="stroke:#A80036;stroke-width:1.5;" width="658" x="1425.5" y="179"/><ellipse cx="1667.25" cy="195" fill="#ADD1B2" rx="11" ry="11" style="stroke:#A80036;stroke-width:1.0;"/><path d="M1669.5938,190.6719 C1668.6563,190.2344 1668.0625,190.0938 1667.1875,190.0938 C1664.5625,190.0938 1662.5625,192.1719 1662.5625,194.8906 L1662.5625,196.0156 C1662.5625,198.5938 1664.6719,200.4844 1667.5625,200.4844 C1668.7813,200.4844 1669.9375,200.1875 1670.6875,199.6406 C1671.2656,199.2344 1671.5938,198.7813 1671.5938,198.3906 C1671.5938,197.9375 1671.2031,197.5469 1670.7344,197.5469 C1670.5156,197.5469 1670.3125,197.625 1670.125,197.8125 C1669.6719,198.2969 1669.6719,198.2969 1669.4844,198.3906 C1669.0625,198.6563 1668.375,198.7813 1667.6094,198.7813 C1665.5625,198.7813 1664.2656,197.6875 1664.2656,195.9844 L1664.2656,194.8906 C1664.2656,193.1094 1665.5156,191.7969 1667.25,191.7969 C1667.8281,191.7969 1668.4375,191.9531 1668.9063,192.2031 C1669.3906,192.4844 1669.5625,192.7031 1669.6563,193.1094 C1669.7188,193.5156 1669.75,193.6406 1669.8906,193.7656 C1670.0313,193.9063 1670.2656,194.0156 1670.4844,194.0156 C1670.75,194.0156 1671.0156,193.875 1671.1875,193.6563 C1671.2969,193.5 1671.3281,193.3125 1671.3281,192.8906 L1671.3281,191.4688 C1671.3281,191.0313 1671.3125,190.9063 1671.2188,190.75 C1671.0625,190.4844 1670.7813,190.3438 1670.4844,190.3438 C1670.1875,190.3438 1669.9844,190.4375 1669.7656,190.75 L1669.5938,190.6719 Z " fill="#000000"/><text fill="#000000" font-family="sans-serif" font-size="12" lengthAdjust="spacing" textLength="166" x="1687.75" y="199.1543">SettlementUsersRepository</text><line style="stroke:#A80036;stroke-width:1.5;" x1="1426.5" x2="2082.5" y1="211" y2="211"/><line style="stroke:#A80036;stroke-width:1.5;" x1="1426.5" x2="2082.5" y1="219" y2="219"/><ellipse cx="1436.5" cy="230" fill="#84BE84" rx="3" ry="3" style="stroke:#038048;stroke-width:1.0;"/><text fill="#000000" font-family="sans-serif" font-size="11" lengthAdjust="spacing" textLength="452" x="1445.5" y="233.2104">SettlementUsersRepository(context:ExpensesSplitterContext, mapper:IMapper)</text><ellipse cx="1436.5" cy="242.8047" fill="#84BE84" rx="3" ry="3" style="stroke:#038048;stroke-width:1.0;"/><text fill="#000000" font-family="sans-serif" font-size="11" lengthAdjust="spacing" textLength="425" x="1445.5" y="246.0151">GetSettlementUsers(settlementId:string) : IEnumerable&lt;SettlementUser&gt;</text><ellipse cx="1436.5" cy="255.6094" fill="#84BE84" rx="3" ry="3" style="stroke:#038048;stroke-width:1.0;"/><text fill="#000000" font-family="sans-serif" font-size="11" lengthAdjust="spacing" textLength="464" x="1445.5" y="258.8198">GetSettlementUser(settlementId:string, settlementUserId:Guid) : SettlementUser</text><ellipse cx="1436.5" cy="268.4141" fill="#84BE84" rx="3" ry="3" style="stroke:#038048;stroke-width:1.0;"/><text fill="#000000" font-family="sans-serif" font-size="11" lengthAdjust="spacing" textLength="497" x="1445.5" y="271.6245">CreateSettlementUser(settlementId:string, settlementUser:NewSettlementUser) : Guid</text><ellipse cx="1436.5" cy="281.2188" fill="#84BE84" rx="3" ry="3" style="stroke:#038048;stroke-width:1.0;"/><text fill="#000000" font-family="sans-serif" font-size="11" lengthAdjust="spacing" textLength="416" x="1445.5" y="284.4292">DeleteSettlementUser(settlementId:string, settlementUserId:Guid) : void</text><ellipse cx="1436.5" cy="294.0234" fill="#84BE84" rx="3" ry="3" style="stroke:#038048;stroke-width:1.0;"/><text fill="#000000" font-family="sans-serif" font-size="11" lengthAdjust="spacing" textLength="632" x="1445.5" y="297.2339">UpdateSettlementUser(settlementId:string, settlementUserId:Guid, settlementUser:NewSettlementUser) : void</text><!--MD5=[bbcbccd6f063f619737fca9b9881afed]
reverse link ITransactionsRepository to TransactionsRepository--><path codeLine="16" d="M351.5,139.518 C351.5,152.656 351.5,166.179 351.5,178.888 " fill="none" id="ITransactionsRepository-backto-TransactionsRepository" style="stroke:#A80036;stroke-width:1.0;"/><polygon fill="none" points="344.5,139.361,351.5,119.361,358.5,139.361,344.5,139.361" style="stroke:#A80036;stroke-width:1.0;"/><!--MD5=[1cde419a1f2b2b7dd400d39292ea5ae8]
reverse link IExpensesRepository to ExpensesRepository--><path codeLine="32" d="M1060.5,139.518 C1060.5,152.656 1060.5,166.179 1060.5,178.888 " fill="none" id="IExpensesRepository-backto-ExpensesRepository" style="stroke:#A80036;stroke-width:1.0;"/><polygon fill="none" points="1053.5,139.361,1060.5,119.361,1067.5,139.361,1053.5,139.361" style="stroke:#A80036;stroke-width:1.0;"/><!--MD5=[6689f5410113c97550240afc2020b906]
reverse link ISettlementUsersRepository to SettlementUsersRepository--><path codeLine="48" d="M1754.5,139.518 C1754.5,152.656 1754.5,166.179 1754.5,178.888 " fill="none" id="ISettlementUsersRepository-backto-SettlementUsersRepository" style="stroke:#A80036;stroke-width:1.0;"/><polygon fill="none" points="1747.5,139.361,1754.5,119.361,1761.5,139.361,1747.5,139.361" style="stroke:#A80036;stroke-width:1.0;"/><!--MD5=[4d095bbf37df5d2fc4f1365f0787368b]
@startuml
interface ITransactionsRepository {
    GetTransactions(settlementId:string) : IEnumerable<Transaction>
    GetTransaction(settlementId:string, transactionId:Guid) : Transaction
    CreateTransaction(settlementId:string, transaction:NewTransaction) : Guid
    DeleteTransaction(settlementId:string, transactionId:Guid) : void
    UpdateTransaction(settlementId:string, transactionId:Guid, transaction:NewTransaction) : void
}
class TransactionsRepository {
    + TransactionsRepository(context:ExpensesSplitterContext, mapper:IMapper, logger:ILogger<TransactionsRepository>)
    + GetTransactions(settlementId:string) : IEnumerable<Transaction>
    + GetTransaction(settlementId:string, transactionId:Guid) : Transaction
    + CreateTransaction(settlementId:string, transaction:NewTransaction) : Guid
    + DeleteTransaction(settlementId:string, transactionId:Guid) : void
    + UpdateTransaction(settlementId:string, transactionId:Guid, transaction:NewTransaction) : void
}
ITransactionsRepository <|- - TransactionsRepository
interface IExpensesRepository {
    GetExpenses(settlementId:string) : IEnumerable<Expense>
    GetExpense(settlementId:string, expenseId:Guid) : Expense
    CreateExpense(settlementId:string, expense:NewExpense) : Guid
    DeleteExpense(settlementId:string, expenseId:Guid) : void
    UpdateExpense(settlementId:string, expenseId:Guid, expense:NewExpense) : void
}
class ExpensesRepository {
    + ExpensesRepository(context:ExpensesSplitterContext, mapper:IMapper, logger:ILogger<ExpensesRepository>)
    + GetExpenses(settlementId:string) : IEnumerable<Expense>
    + GetExpense(settlementId:string, expenseId:Guid) : Expense
    + CreateExpense(settlementId:string, expense:NewExpense) : Guid
    + DeleteExpense(settlementId:string, expenseId:Guid) : void
    + UpdateExpense(settlementId:string, expenseId:Guid, expense:NewExpense) : void
}
IExpensesRepository <|- - ExpensesRepository
interface ISettlementUsersRepository {
    GetSettlementUsers(settlementId:string) : IEnumerable<SettlementUser>
    GetSettlementUser(settlementId:string, settlementUserId:Guid) : SettlementUser
    CreateSettlementUser(settlementId:string, settlementUser:NewSettlementUser) : Guid
    DeleteSettlementUser(settlementId:string, settlementUserId:Guid) : void
    UpdateSettlementUser(settlementId:string, settlementUserId:Guid, settlementUser:NewSettlementUser) : void
}
class SettlementUsersRepository {
    + SettlementUsersRepository(context:ExpensesSplitterContext, mapper:IMapper)
    + GetSettlementUsers(settlementId:string) : IEnumerable<SettlementUser>
    + GetSettlementUser(settlementId:string, settlementUserId:Guid) : SettlementUser
    + CreateSettlementUser(settlementId:string, settlementUser:NewSettlementUser) : Guid
    + DeleteSettlementUser(settlementId:string, settlementUserId:Guid) : void
    + UpdateSettlementUser(settlementId:string, settlementUserId:Guid, settlementUser:NewSettlementUser) : void
}
ISettlementUsersRepository <|- - SettlementUsersRepository
@enduml

PlantUML version 1.2021.01beta3(Unknown compile time)
(GPL source distribution)
Java Runtime: Java(TM) SE Runtime Environment
JVM: Java HotSpot(TM) 64-Bit Server VM
Default Encoding: UTF-8
Language: en
Country: US
--></g></svg>